<svg width="500" height="89" viewBox="0 0 500 89" fill="none" xmlns="http://www.w3.org/2000/svg">
<g clip-path="url(#clip0_1379_2727)">
<path d="M75.8699 87.7695L60.3699 77.2595L60.3599 35.8895V10.4995L75.8699 0.519531V87.7695Z" fill="white"/>
<path d="M57.0001 88.2898L44.0501 78.0698L43.8101 77.6498L43.8401 11.5498L57.0001 1.0498V88.2898Z" fill="white"/>
<path d="M40.4598 87.24L29.2798 75.58L29.0698 52.35C28.9698 38.84 29.2998 25.32 29.2498 11.79L40.4598 0V87.24Z" fill="white"/>
<path d="M25.7001 88.1198C24.8601 86.9798 24.2101 85.5198 23.5801 84.2198C21.7401 80.4498 19.8801 76.6698 18.0701 72.8898C17.8901 72.5098 17.7601 72.2998 17.5801 71.9098C17.2401 71.1898 16.7001 70.1598 16.6201 69.3998L16.6401 19.5998L25.6201 1.0498L25.7001 88.1298V88.1198Z" fill="white"/>
<path d="M13.2602 0.140109L12.9302 86.7201L6.66016 67.5101V19.5101C7.65016 15.9601 8.94016 12.2601 10.0702 8.92011C10.9802 6.21011 11.8402 3.11011 12.8902 0.500109C12.9902 0.250109 12.7902 0.0501085 13.2602 0.140109Z" fill="white"/>
<path d="M3.31 86.8302L0 61.3602V26.3902L3.31 1.41016V86.8302Z" fill="white"/>
<path d="M499.48 76.4798H485.98V35.6097C485.95 25.9497 479.73 21.4297 470.38 23.4097C465.27 24.4997 462.08 29.4897 462.08 34.5797V76.4798H448.58V35.6097C448.12 27.7497 445.24 23.0197 436.76 23.0197C427.06 23.0197 424.61 29.2997 424.41 37.9397V76.4697H411.18V12.6597H418.45L421.44 20.6997C426.16 12.7997 437.29 10.8497 445.78 12.2197C451.62 13.1597 455.89 16.2297 458.58 21.4797C462.86 13.0197 474.33 10.9197 482.95 12.1897C494.09 13.8297 498.11 21.9397 499.19 32.2897C499.82 46.9897 499.32 61.7597 499.48 76.4897V76.4798Z" fill="white"/>
<path d="M374.05 76.48H366.78L364.05 67.15C361.82 70.43 358.28 72.8 354.66 74.37C341.18 80.23 315.79 78.48 314.56 59.76C313.44 42.85 328.41 40.47 341.71 38.87C348.13 38.1 354.63 37.76 361.06 37.05C360.94 31.7 359.96 26.29 354.56 23.95C349.64 21.82 339.05 21.83 334.32 24.48C330.39 26.69 329.43 31.01 329.37 35.23H316.38C316.38 25.72 319.57 17.96 328.78 14.28C337.99 10.6 354.13 11.01 362.78 14.95C370.97 18.69 373.44 26.38 374.04 34.83V76.48H374.05ZM361.06 47.16C354.49 47.96 347.77 48.3 341.23 49.27C336.24 50.01 328.19 51.11 328.13 57.66C328.04 68.68 346.66 68.25 353.53 64.41C357.73 62.06 361.06 56.56 361.06 51.69V47.15V47.16Z" fill="white"/>
<path d="M208.04 11.9604C229.34 10.5004 242.63 20.2804 243.68 42.0904C244.59 61.0404 236.26 75.9704 216.01 77.2504C194.7 78.5904 181.42 69.5704 180.31 47.5504C179.32 28.1004 187.27 13.3804 208.04 11.9604ZM208.82 22.8604C196.34 24.0204 193.59 34.9904 193.8 45.7504C194.01 56.5104 197.21 65.0604 208.75 66.3604C227.06 68.4304 231.43 55.4204 229.91 39.7804C228.66 26.9004 221.7 21.6704 208.83 22.8604H208.82Z" fill="white"/>
<path d="M170.96 76.4799H157.72V39.2399C157.13 26.2699 152.53 22.1999 139.4 23.0199C130.93 23.5499 126.84 27.5699 125.81 35.9099C125.17 49.3999 125.68 62.9599 125.52 76.4799H112.28V12.6599H119.55L122.41 21.4799C123.35 20.4699 123.99 19.1999 125 18.2299C131.97 11.5299 146.97 10.5899 155.85 13.1099C169.52 16.9899 170.63 30.2299 170.99 42.3499C171.33 53.6999 170.71 65.1199 170.98 76.4799H170.96Z" fill="white"/>
<path d="M259.13 12.6602L278.47 65.0602L297.69 12.6602H312.76L285.88 76.2202L270.8 76.4902L244.97 12.6602H259.13Z" fill="white"/>
<path d="M398.45 12.6602H385.21V76.4802H398.45V12.6602Z" fill="white"/>
</g>
<defs>
<clipPath id="clip0_1379_2727">
<rect width="499.52" height="88.29" fill="white"/>
</clipPath>
</defs>
</svg>
